<?xml version="1.0" encoding="UTF-8"?>
<svg width="314px" height="201px" viewBox="0 0 314 201" version="1.1" xmlns="http://www.w3.org/2000/svg" xmlns:xlink="http://www.w3.org/1999/xlink">
    <title>Group 19</title>
    <g id="Page-1" stroke="none" stroke-width="1" fill="none" fill-rule="evenodd">
        <g id="Group-19" transform="translate(0.300000, 0.000000)">
            <circle id="Oval" fill="#C70025" cx="156.660938" cy="39.9609375" r="39.9609375"></circle>
            <path d="M149.887813,62.2775 C150.47,62.2775 150.664063,61.371875 150.664063,60.2721875 C150.664063,59.301875 150.534688,58.2021875 150.21125,57.2965625 C148.464688,52.833125 147.62375,47.916875 147.62375,42.6125 C147.62375,39.76625 147.8825,36.7259375 148.335313,33.6209375 C148.529375,32.2625 148.788125,32.00375 151.052188,31.2275 C152.345938,30.7746875 155.839063,29.2221875 157.132813,29.2221875 C157.326875,29.2221875 158.2325,28.9634375 159.00875,28.5753125 C160.949375,27.6696875 161.014063,27.475625 162.89,26.57 C165.024688,25.535 166.25375,25.8584375 169.164688,25.8584375 C169.87625,25.8584375 170.39375,25.664375 170.39375,24.9528125 C170.39375,23.6590625 167.418125,23.2709375 163.989688,23.2709375 C156.227188,23.2709375 155.645,24.6940625 149.629063,26.2465625 C149.499688,26.2465625 149.499688,26.2465625 149.435,26.181875 C149.435,26.181875 149.370313,26.1171875 149.370313,25.9878125 C149.370313,25.0821875 150.017188,21.8478125 150.017188,19.971875 C150.017188,19.195625 149.887813,18.678125 149.564375,18.678125 C149.435,18.678125 149.17625,18.6134375 148.982188,18.54875 C148.9175,18.54875 148.788125,18.4840625 148.723438,18.4840625 C147.041563,18.4840625 145.55375,23.4003125 145.165625,25.405625 C144.583438,28.5753125 144.583438,28.510625 143.48375,29.0928125 C140.12,30.9040625 137.403125,33.3621875 137.403125,34.5265625 C137.403125,35.4321875 137.855938,35.6909375 138.5675,35.6909375 C140.12,35.6909375 142.836875,34.1384375 143.548438,34.1384375 C143.613125,34.1384375 143.548438,34.59125 143.48375,35.238125 C143.030938,38.0196875 142.578125,44.2296875 142.578125,49.210625 C142.578125,51.3453125 142.7075,53.350625 142.901563,54.7090625 C143.160313,56.6496875 143.48375,58.39625 143.613125,58.655 C143.936563,59.301875 145.489063,59.301875 145.941875,60.078125 C146.912188,62.01875 148.14125,60.7896875 149.240938,61.889375 C149.499688,62.148125 149.69375,62.2775 149.887813,62.2775 Z M170.91125,40.9953125 C172.075625,40.9953125 173.045938,40.930625 173.304688,40.671875 C173.822188,40.28375 174.01625,39.895625 174.01625,39.5075 C174.01625,37.5021875 169.294063,35.62625 168.194375,35.3675 C166.383125,35.0440625 165.154063,34.720625 164.119063,34.720625 C162.049063,34.720625 161.208125,35.5615625 158.814688,37.5021875 C158.297188,37.955 158.103125,38.2784375 158.103125,38.5371875 C158.103125,39.3134375 160.237813,39.4428125 160.690625,39.76625 C161.59625,40.3484375 167.482813,40.9953125 170.91125,40.9953125 Z M165.865625,58.8490625 C169.488125,58.8490625 174.404375,57.8140625 174.404375,56.3909375 C174.404375,55.55 173.886875,55.0971875 172.787188,55.0325 C169.229375,54.77375 167.28875,54.3209375 165.671563,53.6740625 C164.248438,53.091875 162.307813,52.445 161.3375,51.539375 C161.07875,51.15125 160.690625,51.021875 160.367188,51.021875 C159.461563,51.021875 158.426563,52.1215625 158.426563,53.2859375 C158.426563,53.609375 158.555938,53.868125 158.75,54.1915625 C159.461563,55.420625 161.660938,57.87875 162.501875,58.3315625 C163.213438,58.655 164.4425,58.8490625 165.865625,58.8490625 Z" id="ãŸ" fill="#FFFFFF" fill-rule="nonzero"></path>
            <path d="M24.564,197.748 C25.116,197.748 25.576,197.656 26.036,197.656 C27.048,197.564 27.692,197.196 27.784,195.908 C27.968,194.068 28.428,192.136 28.336,190.296 C27.784,176.68 28.428,163.064 28.796,149.448 C28.796,148.528 28.888,147.7 28.98,146.78 C28.98,145.768 29.348,145.032 30.36,144.94 C32.108,144.848 33.948,144.664 35.696,144.664 C36.892,144.756 38.088,144.94 39.376,145.032 C39.468,144.296 39.468,143.652 39.56,143.1 C39.652,138.868 39.744,134.636 39.928,130.404 C40.02,128.38 38.364,126.356 36.432,126.356 C31.188,126.448 25.944,126.632 20.608,126.724 C15.088,126.724 9.476,126.724 3.864,126.816 C2.668,126.816 1.472,127.184 0,127.46 C0.276,132.244 0.46,136.476 0.828,140.708 C1.012,143.468 1.656,144.112 4.232,144.204 C6.164,144.204 8.096,144.204 10.028,144.02 C12.236,143.744 12.604,144.02 12.696,146.412 C12.696,149.448 12.788,152.484 12.88,155.52 C12.88,159.108 12.972,162.696 12.88,166.284 C12.788,171.62 12.512,176.864 12.42,182.108 C12.328,185.972 12.42,189.836 12.328,193.7 C12.236,196.552 13.156,197.748 15.824,197.748 L24.564,197.748 L24.564,197.748 Z M37.444,198.3 C38.088,198.116 38.64,197.932 39.284,197.84 C42.136,197.472 44.896,197.196 47.932,196.828 C48.116,196.092 48.484,195.264 48.76,194.436 C49.312,192.136 49.956,189.836 50.508,187.628 C50.784,186.616 51.244,185.972 52.256,185.788 C54.924,185.42 57.5,184.96 60.168,184.684 C62.192,184.5 62.284,184.684 62.56,186.524 C63.02,189.008 63.388,191.492 63.756,193.976 C64.124,195.908 64.4,196.184 66.24,196.368 C66.792,196.46 67.344,196.368 67.988,196.368 C70.656,196.184 73.416,196 76.176,195.816 C77.832,195.724 78.2,195.448 78.016,193.7 C77.832,191.86 77.556,190.02 77.28,188.18 C76.452,183.304 75.624,178.428 74.704,173.552 C73.968,169.872 72.772,166.284 72.128,162.604 C70.932,155.704 70.012,148.804 69,141.904 C68.356,138.132 67.712,134.36 66.976,130.68 C66.7,129.484 66.148,128.38 66.976,127.368 C65.32,125.988 65.136,125.896 63.664,125.804 C61.64,125.804 59.616,125.712 57.592,125.62 C54.832,125.436 52.164,126.08 49.128,126.264 C50.416,128.472 49.496,130.22 48.944,131.968 C48.3,134.268 47.564,136.568 46.92,138.96 C46.552,140.34 46.46,141.812 46.184,143.284 C45.172,147.608 44.068,151.932 43.056,156.256 C42.412,159.2 41.952,162.144 41.308,165.088 C40.112,170.424 38.732,175.668 37.628,181.004 C36.524,185.972 35.604,191.032 34.684,196 C34.224,198.208 35.328,199.036 37.444,198.3 Z M54.004,172.54 C54.188,166.56 56.488,155.704 58.144,152.76 C60.168,159.2 60.72,165.64 61.732,172.264 C59.064,172.356 56.58,172.448 54.004,172.54 Z M86.02,197.196 C88.964,196.736 91.908,196.368 94.944,195.908 L96.876,195.356 L96.876,195.356 C96.14,192.044 96.14,176.864 96.968,174.196 C97.704,175.208 98.164,175.944 98.532,176.68 C101.016,181.096 103.316,185.512 105.708,189.928 C106.996,192.228 108.836,193.516 111.412,193.148 C112.148,192.964 112.976,192.872 113.804,192.78 C115.828,192.596 117.852,192.412 119.876,192.228 C120.704,192.136 121.44,191.768 121.164,190.756 C120.612,188.548 119.968,186.34 119.14,184.316 C118.312,182.384 117.208,180.728 116.288,178.888 C114.356,175.208 112.608,171.436 110.676,167.848 C106.996,161.04 106.996,160.948 110.308,153.956 L120.244,131.876 L120.244,131.876 C121.164,129.852 120.612,128.564 118.588,128.196 C115.184,127.736 111.78,127.368 108.468,126.908 C107.272,126.816 106.444,127.184 105.984,128.472 C105.064,130.864 104.052,133.072 103.132,135.464 C101.844,139.052 100.648,142.64 99.36,146.32 C99.176,146.688 98.9,146.964 98.348,147.7 C98.532,141.72 98.624,136.292 98.808,130.864 C98.9,128.748 98.44,127.92 96.692,127.368 C96.14,127.184 95.588,127.184 95.036,127.276 C91.172,127.644 87.216,128.012 83.352,128.38 C83.168,128.472 83.076,128.748 82.892,128.84 C83.168,130.128 83.628,131.324 83.628,132.52 C83.72,138.96 83.72,145.308 83.628,151.748 C83.536,159.752 83.536,167.848 83.26,175.852 C83.076,182.016 83.812,188.18 82.8,194.252 C82.524,196.276 84.088,197.564 86.02,197.196 Z M140.944,195.724 C144.992,195.724 148.58,193.976 152.352,192.596 C152.812,192.412 153.18,191.952 153.548,191.492 C157.504,186.708 160.172,181.28 161.092,175.024 C161.828,169.596 162.104,164.076 162.564,158.188 C162.104,153.496 161.552,148.436 161.092,143.376 C160.724,139.88 159.712,136.476 158.332,133.348 C156.124,128.196 152.352,125.436 146.924,125.252 C141.588,125.16 136.896,126.724 132.48,129.76 C128.524,132.612 126.96,136.936 125.488,141.26 C123.74,146.504 122.82,152.116 122.36,157.636 C121.992,162.696 122.452,167.756 123.004,172.724 C123.464,176.772 124.292,180.636 125.672,184.5 C127.88,191.032 135.24,195.724 140.944,195.724 Z M139.748,179.072 C139.012,177.968 138.46,176.588 138,175.208 C135.516,167.664 137.08,160.028 137.816,152.392 C138,150.184 138.552,148.068 139.012,145.952 C139.288,144.572 140.852,143.192 142.416,142.916 C143.704,142.732 144.624,143.376 145.36,145.124 C145.728,146.044 146.004,146.964 146.096,147.976 C146.924,152.576 148.12,157.084 147.568,161.96 C147.752,166.652 147.016,171.252 145.544,175.668 C145.084,176.864 144.532,178.06 143.796,179.072 C142.6,180.82 140.944,180.82 139.748,179.072 Z M189.98,196.92 C191.636,196.92 192.28,196.368 192.372,194.988 C192.464,191.584 192.556,188.18 192.74,184.776 C193.108,178.888 193.384,173 193.752,167.112 C193.844,166.468 194.12,165.732 194.488,165.18 C195.132,163.984 196.052,162.972 196.788,161.776 C200.192,155.796 203.504,149.816 206.908,143.928 C209.392,139.512 211.508,134.912 213.44,129.944 C212.52,129.392 211.692,128.564 210.772,128.38 C208.932,128.104 207,128.196 205.16,128.104 C202.308,128.012 199.456,127.92 196.604,127.736 C195.316,127.736 194.672,128.196 194.396,129.392 C194.212,130.404 193.936,131.324 193.568,132.244 C191.544,137.396 189.612,142.548 187.588,147.7 C187.404,148.252 187.036,148.804 186.668,149.54 C186.392,148.804 186.208,148.436 186.024,147.976 C184.276,141.904 182.528,135.924 180.964,129.852 C180.504,128.288 179.768,127.552 178.296,127.46 C176.824,127.368 175.352,127.184 173.88,127.276 C171.028,127.368 168.176,127.644 165.324,127.92 C164.772,127.92 164.128,128.012 164.128,128.84 C163.668,128.656 163.208,128.656 162.564,128.656 C162.748,129.208 163.3,130.956 163.392,131.324 C164.864,135.832 166.336,140.248 167.716,144.848 C169.74,151.38 171.856,157.82 175.076,163.892 C176.732,167.296 177.008,170.516 176.456,174.104 C176.088,176.312 175.72,178.52 175.628,180.82 C175.536,185.42 175.536,190.112 175.444,194.804 C175.444,196.644 175.996,197.012 177.836,196.828 C179.584,196.736 181.24,196.644 182.988,196.644 C185.288,196.644 187.588,196.828 189.98,196.92 Z M206.724,198.3 C207.368,198.116 207.92,197.932 208.564,197.84 C211.416,197.472 214.176,197.196 217.212,196.828 C217.396,196.092 217.764,195.264 218.04,194.436 C218.592,192.136 219.236,189.836 219.788,187.628 C220.064,186.616 220.524,185.972 221.536,185.788 C224.204,185.42 226.78,184.96 229.448,184.684 C231.472,184.5 231.564,184.684 231.84,186.524 C232.3,189.008 232.668,191.492 233.036,193.976 C233.404,195.908 233.68,196.184 235.52,196.368 C236.072,196.46 236.624,196.368 237.268,196.368 C239.936,196.184 242.696,196 245.456,195.816 C247.112,195.724 247.48,195.448 247.296,193.7 C247.112,191.86 246.836,190.02 246.56,188.18 C245.732,183.304 244.904,178.428 243.984,173.552 C243.248,169.872 242.052,166.284 241.408,162.604 C240.212,155.704 239.292,148.804 238.28,141.904 C237.636,138.132 236.992,134.36 236.256,130.68 C235.98,129.484 235.428,128.38 236.256,127.368 C234.6,125.988 234.416,125.896 232.944,125.804 C230.92,125.804 228.896,125.712 226.872,125.62 C224.112,125.436 221.444,126.08 218.408,126.264 C219.696,128.472 218.776,130.22 218.224,131.968 C217.58,134.268 216.844,136.568 216.2,138.96 C215.832,140.34 215.74,141.812 215.464,143.284 C214.452,147.608 213.348,151.932 212.336,156.256 C211.692,159.2 211.232,162.144 210.588,165.088 C209.392,170.424 208.012,175.668 206.908,181.004 C205.804,185.972 204.884,191.032 203.964,196 C203.504,198.208 204.608,199.036 206.724,198.3 Z M223.284,172.54 C223.468,166.56 225.768,155.704 227.424,152.76 C229.448,159.2 230,165.64 231.012,172.264 C228.344,172.356 225.86,172.448 223.284,172.54 Z M255.3,197.196 C258.244,196.736 261.188,196.368 264.224,195.908 L266.156,195.356 L266.156,195.356 C265.42,192.044 265.42,176.864 266.248,174.196 C266.984,175.208 267.444,175.944 267.812,176.68 C270.296,181.096 272.596,185.512 274.988,189.928 C276.276,192.228 278.116,193.516 280.692,193.148 C281.428,192.964 282.256,192.872 283.084,192.78 L289.156,192.228 L289.156,192.228 C289.984,192.136 290.72,191.768 290.444,190.756 C289.892,188.548 289.248,186.34 288.42,184.316 C287.592,182.384 286.488,180.728 285.568,178.888 C283.636,175.208 281.888,171.436 279.956,167.848 C276.276,161.04 276.276,160.948 279.588,153.956 L289.524,131.876 L289.524,131.876 C290.444,129.852 289.892,128.564 287.868,128.196 C284.464,127.736 281.06,127.368 277.748,126.908 C276.552,126.816 275.724,127.184 275.264,128.472 C274.344,130.864 273.332,133.072 272.412,135.464 C271.124,139.052 269.928,142.64 268.64,146.32 C268.456,146.688 268.18,146.964 267.628,147.7 C267.812,141.72 267.904,136.292 268.088,130.864 C268.18,128.748 267.72,127.92 265.972,127.368 C265.42,127.184 264.868,127.184 264.316,127.276 C260.452,127.644 256.496,128.012 252.632,128.38 C252.448,128.472 252.356,128.748 252.172,128.84 C252.448,130.128 252.908,131.324 252.908,132.52 C253,138.96 253,145.308 252.908,151.748 C252.816,159.752 252.816,167.848 252.54,175.852 C252.356,182.016 253.092,188.18 252.08,194.252 C251.804,196.276 253.368,197.564 255.3,197.196 Z M298.816,200.324 C299.736,199.128 300.656,199.496 301.668,199.496 C304.06,199.404 306.36,199.496 308.752,199.22 C310.316,199.128 311.972,198.76 312.616,196.92 C311.512,193.24 310.408,190.112 310.408,186.524 C310.316,181.556 310.132,176.588 310.04,171.528 C309.764,163.984 309.488,156.348 309.396,148.804 C309.304,144.296 309.672,139.88 309.672,135.372 C309.764,132.704 309.12,131.784 306.728,131.6 C302.956,131.232 299.184,131.14 295.412,130.956 C295.228,131.508 295.136,131.692 295.136,131.968 C295.32,136.752 295.504,141.628 295.596,146.412 C295.872,154.876 296.056,163.34 296.24,171.804 C296.424,180.452 296.516,189.192 296.608,197.84 C296.608,198.484 296.7,199.128 296.884,199.588 C297.252,200.6 298.264,201.06 298.816,200.324 Z" id="TAKOYAKI" fill="#000000" fill-rule="nonzero"></path>
        </g>
    </g>
</svg>